<?xml version="1.0" standalone="no"?>
<!DOCTYPE svg PUBLIC "-//W3C//DTD SVG 20010904//EN"
 "http://www.w3.org/TR/2001/REC-SVG-20010904/DTD/svg10.dtd">
<svg version="1.0" xmlns="http://www.w3.org/2000/svg"
 width="443.000000pt" height="407.000000pt" viewBox="0 0 443.000000 407.000000"
 preserveAspectRatio="xMidYMid meet">

<g transform="translate(0.000000,407.000000) scale(0.100000,-0.100000)"
fill="#000000" stroke="none">
<path d="M0 2035 l0 -2035 2215 0 2215 0 0 2035 0 2035 -2215 0 -2215 0 0
-2035z m2238 658 c10 -16 98 -165 194 -333 97 -168 226 -392 287 -498 126
-217 128 -221 113 -231 -5 -3 -287 -5 -626 -3 -551 2 -616 4 -616 18 0 9 68
133 152 277 83 144 221 382 305 530 85 147 159 267 163 267 5 0 17 -12 28 -27z"/>
<path d="M2157 2573 c-19 -32 -121 -209 -227 -393 -106 -184 -212 -368 -236
-409 -25 -41 -43 -75 -42 -76 2 -2 123 68 270 154 l267 156 3 313 c2 171 2
312 1 312 -1 0 -17 -26 -36 -57z"/>
<path d="M2231 2370 c1 -146 5 -289 8 -317 l6 -53 258 -151 c142 -83 260 -149
262 -147 2 2 -49 96 -114 208 -209 364 -413 715 -418 720 -2 2 -3 -115 -2
-260z"/>
<path d="M1932 1816 l-264 -151 277 -3 c152 -1 397 -1 545 0 l269 3 -268 153
c-148 83 -275 151 -283 151 -7 -1 -131 -69 -276 -153z"/>
</g>
</svg>
